<svg id="visual" viewBox="0 0 1920 400" width="1920" height="400" xmlns="http://www.w3.org/2000/svg" xmlns:xlink="http://www.w3.org/1999/xlink" version="1.1"><path d="M0 162L29.2 168.5C58.3 175 116.7 188 174.8 199.8C233 211.7 291 222.3 349.2 216.8C407.3 211.3 465.7 189.7 523.8 162.8C582 136 640 104 698.2 126.8C756.3 149.7 814.7 227.3 872.8 236.2C931 245 989 185 1047.2 159.2C1105.3 133.3 1163.7 141.7 1221.8 150.5C1280 159.3 1338 168.7 1396.2 181.8C1454.3 195 1512.7 212 1570.8 215C1629 218 1687 207 1745.2 179.8C1803.3 152.7 1861.7 109.3 1890.8 87.7L1920 66L1920 0L1890.8 0C1861.7 0 1803.3 0 1745.2 0C1687 0 1629 0 1570.8 0C1512.7 0 1454.3 0 1396.2 0C1338 0 1280 0 1221.8 0C1163.7 0 1105.3 0 1047.2 0C989 0 931 0 872.8 0C814.7 0 756.3 0 698.2 0C640 0 582 0 523.8 0C465.7 0 407.3 0 349.2 0C291 0 233 0 174.8 0C116.7 0 58.3 0 29.2 0L0 0Z" fill="#eebbc3" stroke-linecap="round" stroke-linejoin="miter"></path></svg>