<svg id="visual" viewBox="0 0 1920 400" width="1920" height="400" xmlns="http://www.w3.org/2000/svg" xmlns:xlink="http://www.w3.org/1999/xlink" version="1.1"><path d="M0 257L64 229.7C128 202.3 256 147.7 384 146.2C512 144.7 640 196.3 768 219.7C896 243 1024 238 1152 215.2C1280 192.3 1408 151.7 1536 127.5C1664 103.3 1792 95.7 1856 91.8L1920 88L1920 0L1856 0C1792 0 1664 0 1536 0C1408 0 1280 0 1152 0C1024 0 896 0 768 0C640 0 512 0 384 0C256 0 128 0 64 0L0 0Z" fill="#eebbc3" stroke-linecap="round" stroke-linejoin="miter"></path></svg>