<svg id="visual" viewBox="0 0 1920 400" width="1920" height="400" xmlns="http://www.w3.org/2000/svg" xmlns:xlink="http://www.w3.org/1999/xlink" version="1.1"><path d="M0 222L53.3 219.7C106.7 217.3 213.3 212.7 320 227.8C426.7 243 533.3 278 640 257.3C746.7 236.7 853.3 160.3 960 141C1066.7 121.7 1173.3 159.3 1280 193.3C1386.7 227.3 1493.3 257.7 1600 256.7C1706.7 255.7 1813.3 223.3 1866.7 207.2L1920 191L1920 0L1866.7 0C1813.3 0 1706.7 0 1600 0C1493.3 0 1386.7 0 1280 0C1173.3 0 1066.7 0 960 0C853.3 0 746.7 0 640 0C533.3 0 426.7 0 320 0C213.3 0 106.7 0 53.3 0L0 0Z" fill="#eebbc3" stroke-linecap="round" stroke-linejoin="miter"></path></svg>