<svg id="visual" viewBox="0 0 1920 400" width="1920" height="400" xmlns="http://www.w3.org/2000/svg" xmlns:xlink="http://www.w3.org/1999/xlink" version="1.1"><rect x="0" y="0" width="1920" height="400" fill="#232946"></rect><path d="M0 317L32 322.2C64 327.3 128 337.7 192 342.8C256 348 320 348 384 342.8C448 337.7 512 327.3 576 312.7C640 298 704 279 768 267.8C832 256.7 896 253.3 960 255.8C1024 258.3 1088 266.7 1152 283C1216 299.3 1280 323.7 1344 331.5C1408 339.3 1472 330.7 1536 319.5C1600 308.3 1664 294.7 1728 282.7C1792 270.7 1856 260.3 1888 255.2L1920 250L1920 401L1888 401C1856 401 1792 401 1728 401C1664 401 1600 401 1536 401C1472 401 1408 401 1344 401C1280 401 1216 401 1152 401C1088 401 1024 401 960 401C896 401 832 401 768 401C704 401 640 401 576 401C512 401 448 401 384 401C320 401 256 401 192 401C128 401 64 401 32 401L0 401Z" fill="#eebbc3" stroke-linecap="round" stroke-linejoin="miter"></path></svg>